# xmcd
#
# Track frame offsets:
#	150
#	16411
#	34640
#	49191
#	67235
#
# Disc length: 2184 seconds
#
# Revision: 1
# Processed by: cddbd v1.5.2PL0 Copyright (c) Steve Scherf et al.
# Submitted via: audiograbber 1.83.01
#
DISCID=3f088605
DTITLE=Gewürztraminer - Saunice
DYEAR=2019
DGENRE=Alternative
TTITLE0=Globalisierung
TTITLE1=Andi
TTITLE2=Hausdetschn
TTITLE3=Saunice
TTITLE4=Pljeskavica
EXTD=
EXTT0=
EXTT1=
EXTT2=
EXTT3=
EXTT4=
PLAYORDER=
